<svg t="1580024145708" class="icon" viewBox="0 0 1024 1024" version="1.1" xmlns="http://www.w3.org/2000/svg" p-id="2244" width="200" height="200"><path d="M512 0C229.272524 0 0 229.226738 0 512s229.226738 512 512 512 512-229.226738 512-512S794.761815 0 512 0z m34.476727 684.395082L374.070199 856.80161a73.142857 73.142857 0 0 1-103.441628 0l-103.430181-103.407289a73.142857 73.142857 0 0 1 0-103.441627l172.395082-172.417975a73.142857 73.142857 0 0 1 103.441627 0l17.238364 17.169685-103.441628 103.441628a48.765339 48.765339 0 0 0 68.964901 68.9649l103.441628-103.441627 17.238363 17.238363a73.142857 73.142857 0 0 1 0 103.487414z m34.476727-275.859602a24.380952 24.380952 0 1 1 34.476727 34.476727L408.558372 649.918355a24.383242 24.383242 0 1 1-34.488173-34.476727z m275.859602-34.476727L684.395082 546.476727a73.142857 73.142857 0 0 1-103.441628 0l-17.238363-17.238363 68.9649-68.964901a48.765339 48.765339 0 0 0-68.9649-68.964901l-68.964901 68.964901-17.238363-17.238364a73.142857 73.142857 0 0 1 0-103.441627L649.929801 167.19839a73.142857 73.142857 0 0 1 103.441628 0l103.441627 103.441628a73.142857 73.142857 0 0 1-0.022893 103.441627z" p-id="2245"></path></svg>
