<svg t="1579241777964" class="icon" viewBox="0 0 1092 1024" version="1.1" xmlns="http://www.w3.org/2000/svg" p-id="1547" width="200" height="200"><path d="M1024 68.266667h-273.066667a68.266667 68.266667 0 0 0 0 136.533333h108.544L682.666667 381.610667l-88.064-88.746667a68.266667 68.266667 0 0 0-96.938667 0l-273.066667 273.066667a68.266667 68.266667 0 0 0 0 96.938666 68.266667 68.266667 0 0 0 96.938667 0L546.133333 437.589333l88.064 88.746667a68.266667 68.266667 0 0 0 96.938667 0L955.733333 301.056V409.6a68.266667 68.266667 0 0 0 136.533334 0V136.533333a68.266667 68.266667 0 0 0-68.266667-68.266666z"  p-id="1548"></path><path d="M1024 887.466667H136.533333V68.266667a68.266667 68.266667 0 0 0-136.533333 0v887.466666a68.266667 68.266667 0 0 0 68.266667 68.266667h955.733333a68.266667 68.266667 0 0 0 0-136.533333z" p-id="1549"></path></svg>
