<svg t="1579318567976" class="icon" viewBox="0 0 1024 1024" version="1.1" xmlns="http://www.w3.org/2000/svg" p-id="2528"
     width="200" height="200">
  <path
    d="M451.6 124.3v184.2c0 20.4-16.5 36.9-36.9 36.9s-36.9-16.5-36.9-36.9V124.3c0-20.4 16.5-36.9 36.9-36.9s36.9 16.5 36.9 36.9z m95.6 226.5V535c0 20.4-16.5 36.9-36.9 36.9s-36.9-16.5-36.9-36.9V350.8c0-20.4 16.5-36.9 36.9-36.9 20.4 0.1 36.9 16.6 36.9 36.9zM227.8 484.6v184.2c0 20.4-16.5 36.9-36.9 36.9S154 689.2 154 668.8V484.6c0-20.4 16.5-36.9 36.9-36.9 20.4 0.1 36.9 16.6 36.9 36.9z"
    p-id="2529"></path>
  <path
    d="M547.2 484.6v184.2c0 20.4-16.5 36.9-36.9 36.9s-36.9-16.5-36.9-36.9V484.6c0-20.4 16.5-36.9 36.9-36.9 20.4 0.1 36.9 16.6 36.9 36.9z m319.6 0v184.2c0 20.4-16.5 36.9-36.9 36.9S793 689.2 793 668.8V484.6c0-20.4 16.5-36.9 36.9-36.9 20.4 0.1 36.9 16.6 36.9 36.9z"
    p-id="2530"></path>
  <path
    d="M193.3 448.2H830c20.4 0 36.9 16.5 36.9 36.9S850.4 522 830 522H193.3c-20.4 0-36.9-16.5-36.9-36.9 0.1-20.4 16.6-36.9 36.9-36.9z m445.3-323.9v184.2c0 20.4-16.5 36.9-36.9 36.9s-36.9-16.5-36.9-36.9V124.3c0-20.4 16.5-36.9 36.9-36.9s36.9 16.5 36.9 36.9z"
    p-id="2531"></path>
  <path
    d="M414.7 87.4H599c20.4 0 36.9 16.5 36.9 36.9s-16.5 36.9-36.9 36.9H414.7c-20.4 0-36.9-16.5-36.9-36.9 0.1-20.4 16.6-36.9 36.9-36.9z m0 189.7H599c20.4 0 36.9 16.5 36.9 36.9s-16.5 36.9-36.9 36.9H414.7c-20.4 0-36.9-16.5-36.9-36.9 0.1-20.4 16.6-36.9 36.9-36.9zM455.1 710v184.2c0 20.4-16.5 36.9-36.9 36.9s-36.9-16.5-36.9-36.9V710c0-20.4 16.5-36.9 36.9-36.9 20.4 0.1 36.9 16.6 36.9 36.9z m187 0v184.2c0 20.4-16.5 36.9-36.9 36.9s-36.9-16.5-36.9-36.9V710c0-20.4 16.5-36.9 36.9-36.9 20.4 0.1 36.9 16.6 36.9 36.9z"
    p-id="2532"></path>
  <path
    d="M418.3 673.2h184.2c20.4 0 36.9 16.5 36.9 36.9S622.9 747 602.5 747H418.3c-20.4 0-36.9-16.5-36.9-36.9s16.5-36.9 36.9-36.9z m0 189.7h184.2c20.4 0 36.9 16.5 36.9 36.9s-16.5 36.9-36.9 36.9H418.3c-20.4 0-36.9-16.5-36.9-36.9s16.5-36.9 36.9-36.9zM773.5 710v184.2c0 20.4-16.5 36.9-36.9 36.9s-36.9-16.5-36.9-36.9V710c0-20.4 16.5-36.9 36.9-36.9 20.4 0.1 36.9 16.6 36.9 36.9z m186.9 0v184.2c0 20.4-16.5 36.9-36.9 36.9s-36.9-16.5-36.9-36.9V710c0-20.4 16.5-36.9 36.9-36.9 20.4 0.1 36.9 16.6 36.9 36.9z"
    p-id="2533"></path>
  <path
    d="M736.6 673.2h184.2c20.4 0 36.9 16.5 36.9 36.9S941.2 747 920.8 747H736.6c-20.4 0-36.9-16.5-36.9-36.9 0.1-20.4 16.6-36.9 36.9-36.9z m0 189.7h184.2c20.4 0 36.9 16.5 36.9 36.9s-16.5 36.9-36.9 36.9H736.6c-20.4 0-36.9-16.5-36.9-36.9 0.1-20.4 16.6-36.9 36.9-36.9zM139.3 710v184.2c0 20.4-16.5 36.9-36.9 36.9s-36.9-16.5-36.9-36.9V710c0-20.4 16.5-36.9 36.9-36.9 20.4 0.1 36.9 16.6 36.9 36.9z m186.9 0v184.2c0 20.4-16.5 36.9-36.9 36.9s-36.9-16.5-36.9-36.9V710c0-20.4 16.5-36.9 36.9-36.9 20.4 0.1 36.9 16.6 36.9 36.9z"
    p-id="2534"></path>
  <path
    d="M102.4 673.2h184.2c20.4 0 36.9 16.5 36.9 36.9S307 747 286.6 747H102.4c-20.4 0-36.9-16.5-36.9-36.9 0.1-20.4 16.6-36.9 36.9-36.9z m0 189.7h184.2c20.4 0 36.9 16.5 36.9 36.9s-16.5 36.9-36.9 36.9H102.4c-20.4 0-36.9-16.5-36.9-36.9 0.1-20.4 16.6-36.9 36.9-36.9z"
    p-id="2535"></path>
</svg>
