<?xml version="1.0" standalone="no"?><!DOCTYPE svg PUBLIC "-//W3C//DTD SVG 1.1//EN" "http://www.w3.org/Graphics/SVG/1.1/DTD/svg11.dtd"><svg class="icon" width="200px" height="200.00px" viewBox="0 0 1024 1024" version="1.1" xmlns="http://www.w3.org/2000/svg"><path d="M725.333333 0S492.885333 27.818667 475.818667 174.933333s170.666667 167.765333 230.4 81.066667c55.466667-81.066667 19.114667-256 19.114666-256z" fill="#329664" /><path d="M832 290.133333s-116.224-81.92-194.730667-27.306666c-64.853333 45.056-24.064 153.6 73.045334 139.605333 85.504-11.605333 121.685333-112.298667 121.685333-112.298667zM878.250667 555.52s-69.290667-153.6-224.256-125.269333c-101.376 18.773333-99.498667 174.592 11.605333 201.216 117.077333 29.184 212.650667-75.946667 212.650667-75.946667zM265.898667 223.573333s0 172.373333 106.325333 204.8c87.210667 26.112 166.570667-98.645333 91.136-165.888S265.898667 223.573333 265.898667 223.573333z" fill="#42B275" /><path d="M211.285333 419.669333s36.693333 170.666667 152.064 187.733334c95.402667 14.165333 171.690667-123.733333 82.432-182.613334s-234.496-5.12-234.496-5.12z" fill="#329664" /><path d="M745.813333 307.2a820.736 820.736 0 0 0-200.874666 54.272c29.354667-158.890667 93.696-237.397333 94.208-238.933333a12.8 12.8 0 0 0-19.626667-17.066667c-2.901333 3.413333-70.826667 85.333333-101.034667 256-2.048 11.946667-3.925333 24.405333-5.632 37.034667a599.210667 599.210667 0 0 1-127.317333-83.626667 8.533333 8.533333 0 1 0-11.605333 12.458667 617.984 617.984 0 0 0 136.533333 89.088c-5.802667 49.493333-8.874667 101.376-10.410667 146.261333a430.592 430.592 0 0 0-153.6-89.770667 8.533333 8.533333 0 0 0-4.949333 17.066667 425.642667 425.642667 0 0 1 158.72 96.085333c-1.365333 56.661333 0 97.109333 0 98.133334a12.8 12.8 0 0 0 12.8 12.458666 12.8 12.8 0 0 0 12.458667-13.141333c0-1.194667-1.536-69.802667 2.389333-153.6a469.674667 469.674667 0 0 1 193.024 3.754667h2.218667a8.533333 8.533333 0 0 0 2.218666-17.066667 477.866667 477.866667 0 0 0-196.437333-4.778667c2.56-43.52 6.656-89.770667 13.141333-131.754666A839.509333 839.509333 0 0 1 747.52 324.266667a8.533333 8.533333 0 1 0-1.706667-17.066667z" fill="#1A5B3E" /><path d="M644.949333 1024H379.050667a42.837333 42.837333 0 0 1-42.496-37.888l-38.4-332.629333h427.690666l-38.4 332.629333A42.837333 42.837333 0 0 1 644.949333 1024z" fill="#685245" /><path d="M714.069333 755.541333l5.973334-52.224H303.957333l5.973334 52.224h404.138666z" fill="#513D33" /><path d="M269.653333 648.533333m35.669334 0l413.184 0q35.669333 0 35.669333 35.669334l0 0q0 35.669333-35.669333 35.669333l-413.184 0q-35.669333 0-35.669334-35.669333l0 0q0-35.669333 35.669334-35.669334Z" fill="#7C6559" /></svg>