<?xml version="1.0" standalone="no"?><!DOCTYPE svg PUBLIC "-//W3C//DTD SVG 1.1//EN" "http://www.w3.org/Graphics/SVG/1.1/DTD/svg11.dtd"><svg class="icon" width="200px" height="200.00px" viewBox="0 0 1024 1024" version="1.1" xmlns="http://www.w3.org/2000/svg"><path d="M441.685333 540.16S477.866667 449.877333 381.610667 307.2a273.066667 273.066667 0 0 0-258.901334-119.466667 145.92 145.92 0 0 1 41.984 48.298667c17.066667 27.989333 51.2 145.92 110.762667 228.522667 54.272 75.946667 117.077333 94.037333 166.229333 75.605333z" fill="#258450" /><path d="M489.813333 686.592a12.8 12.8 0 0 1-12.288-9.386667A1101.824 1101.824 0 0 0 364.202667 426.666667a597.333333 597.333333 0 0 0-105.301334-132.949334 12.8 12.8 0 0 1 17.066667-19.626666 607.402667 607.402667 0 0 1 110.762667 139.093333 1106.944 1106.944 0 0 1 116.053333 256 12.8 12.8 0 0 1-8.874667 15.701333z" fill="#1A5B3E" /><path d="M381.098667 569.173333s19.626667-81.578667-72.704-132.096-165.546667-23.552-165.546667-23.552a1236.650667 1236.650667 0 0 0 102.4 116.565334c55.637333 52.224 116.053333 53.418667 135.850667 39.082666z" fill="#42B275" /><path d="M461.824 690.346667a8.533333 8.533333 0 0 1-7.338667-4.096 903.509333 903.509333 0 0 0-75.434666-104.618667 675.84 675.84 0 0 0-110.762667-102.4 8.533333 8.533333 0 1 1 9.557333-14.165333A678.912 678.912 0 0 1 392.533333 570.197333a903.509333 903.509333 0 0 1 77.141334 107.178667 8.533333 8.533333 0 0 1-7.338667 12.970667z" fill="#1A5B3E" /><path d="M497.664 514.218667s93.013333-116.224-28.16-327.338667C381.952 34.133333 285.866667 24.405333 285.866667 24.405333A1448.106667 1448.106667 0 0 0 389.802667 426.666667a153.6 153.6 0 0 0 107.861333 87.552z" fill="#42B275" /><path d="M550.229333 514.730667S477.866667 414.72 547.157333 238.933333C619.690667 58.197333 817.322667 43.008 817.322667 43.008a321.024 321.024 0 0 0-24.405334 64.341333c-7.850667 30.208-18.090667 151.210667-61.781333 253.781334-46.250667 108.885333-116.736 167.936-180.906667 153.6z" fill="#329664" /><path d="M536.234667 718.848h-1.365334a12.8 12.8 0 0 1-11.434666-13.994667c0-8.362667 20.992-206.848 56.661333-313.685333 49.152-147.626667 104.277333-218.453333 106.666667-221.866667a12.8 12.8 0 0 1 20.138666 15.872s-54.784 70.826667-102.4 213.674667c-34.133333 104.277333-55.296 306.176-55.466666 308.224a12.8 12.8 0 0 1-12.8 11.776zM509.781333 683.861333a12.8 12.8 0 0 1-12.8-12.288c0-1.706667-7.168-178.005333-45.056-304.128-41.472-138.069333-77.141333-194.048-77.482666-194.56a12.8 12.8 0 0 1 21.504-13.994666c1.536 2.389333 37.888 58.88 80.725333 201.216 38.741333 129.194667 45.738667 303.104 46.08 310.442666a12.8 12.8 0 0 1-12.288 13.312z" fill="#1A5B3E" /><path d="M617.984 564.394667s-43.008-85.333333 38.741333-170.666667A292.010667 292.010667 0 0 1 841.728 307.2s-62.634667 105.984-96.085333 164.864c-42.154667 74.069333-101.888 101.034667-127.658667 92.330667z" fill="#42B275" /><path d="M573.269333 704.682667h-2.048a8.533333 8.533333 0 0 1-6.144-10.410667 902.485333 902.485333 0 0 1 41.642667-125.269333 677.205333 677.205333 0 0 1 77.312-134.485334 8.533333 8.533333 0 1 1 13.312 10.581334 675.84 675.84 0 0 0-75.093333 130.901333 907.264 907.264 0 0 0-40.789334 122.368 8.533333 8.533333 0 0 1-8.192 6.314667z" fill="#1A5B3E" /><path d="M644.949333 1024H379.050667a42.837333 42.837333 0 0 1-42.496-37.888l-38.4-332.629333h427.690666l-38.4 332.629333A42.837333 42.837333 0 0 1 644.949333 1024z" fill="#685245" /><path d="M714.069333 755.541333l5.973334-52.224H303.957333l5.973334 52.224h404.138666z" fill="#513D33" /><path d="M269.653333 648.533333m35.669334 0l413.184 0q35.669333 0 35.669333 35.669334l0 0q0 35.669333-35.669333 35.669333l-413.184 0q-35.669333 0-35.669334-35.669333l0 0q0-35.669333 35.669334-35.669334Z" fill="#7C6559" /></svg>