<?xml version="1.0" standalone="no"?><!DOCTYPE svg PUBLIC "-//W3C//DTD SVG 1.1//EN" "http://www.w3.org/Graphics/SVG/1.1/DTD/svg11.dtd"><svg class="icon" width="200px" height="200.00px" viewBox="0 0 1024 1024" version="1.1" xmlns="http://www.w3.org/2000/svg"><path d="M650.752 697.002667a8.533333 8.533333 0 0 1-8.533333-8.533334V146.261333a8.533333 8.533333 0 0 1 17.066666 0v542.208a8.533333 8.533333 0 0 1-8.533333 8.533334z" fill="#1A5B3E" /><path d="M646.485333 94.037333c34.133333-2.901333 43.178667 65.194667 35.498667 119.466667C674.986667 261.12 665.6 324.266667 651.434667 324.266667s-25.941333-76.117333-30.208-119.466667-8.533333-107.861333 25.258666-110.762667z" fill="#42B275" /><path d="M652.458667 465.749333a8.533333 8.533333 0 0 1-5.973334-14.506666l73.557334-74.069334a8.533333 8.533333 0 1 1 12.117333 12.117334l-73.557333 74.069333a8.533333 8.533333 0 0 1-6.144 2.389333z" fill="#1A5B3E" /><path d="M812.032 301.056c22.357333 18.261333-17.066667 60.416-53.930667 88.746667-33.109333 25.6-76.288 59.050667-85.333333 50.346666s29.525333-62.293333 52.394667-91.136 64.341333-66.389333 86.869333-47.957333z" fill="#42B275" /><path d="M654.506667 570.538667a8.533333 8.533333 0 0 1-4.778667-15.701334l125.269333-82.944a8.533333 8.533333 0 1 1 9.386667 14.165334l-125.269333 82.944a8.533333 8.533333 0 0 1-4.608 1.536zM648.533333 429.056a8.533333 8.533333 0 0 1-6.485333-2.901333l-89.6-104.106667a8.533333 8.533333 0 1 1 12.970667-11.093333l89.6 104.106666a8.533333 8.533333 0 0 1-6.485334 14.165334z" fill="#1A5B3E" /><path d="M650.752 589.994667a8.533333 8.533333 0 0 1-5.12-1.706667c-4.266667-3.242667-122.368-100.522667-127.488-104.618667a8.533333 8.533333 0 1 1 10.752-13.141333c34.133333 28.16 123.562667 102.4 126.976 104.277333a8.533333 8.533333 0 0 1-5.290667 15.36z" fill="#1A5B3E" /><path d="M440.661333 431.104c20.650667-17.066667 69.632 6.826667 108.032 41.472 34.133333 31.402667 80.042667 72.021333 72.192 83.626667s-85.333333-21.504-121.685333-40.789334-83.285333-63.488-58.538667-84.309333z" fill="#258450" /><path d="M473.429333 248.832c-24.064 20.650667 20.309333 65.706667 61.269334 95.744 37.034667 27.136 85.333333 62.805333 94.72 52.906667s-34.133333-68.266667-59.562667-98.474667-72.192-70.826667-96.426667-50.176zM875.861333 431.445333c7.850667 28.330667-38.4 65.536-89.941333 87.722667-46.592 19.968-107.349333 46.250667-115.2 33.28s60.074667-74.581333 95.402667-101.376 100.352-53.418667 109.738666-19.626667z" fill="#329664" /><path d="M401.749333 682.666667a8.533333 8.533333 0 0 1-8.533333-8.533334V115.2a8.533333 8.533333 0 0 1 17.066667 0v559.445333a8.533333 8.533333 0 0 1-8.533334 8.021334z" fill="#1A5B3E" /><path d="M396.8 57.685333c32.597333-2.901333 41.813333 63.317333 34.133333 115.2-6.826667 46.762667-15.36 108.032-29.525333 108.032s-25.088-73.898667-29.354667-115.029333-7.850667-105.301333 24.746667-108.202667z" fill="#42B275" /><path d="M403.456 371.2a8.533333 8.533333 0 0 1-6.485333-14.165333L477.866667 265.386667a8.533333 8.533333 0 0 1 12.8 11.264L409.6 368.298667a8.533333 8.533333 0 0 1-6.144 2.901333z" fill="#1A5B3E" /><path d="M577.706667 162.816c26.965333 18.602667-13.653333 69.632-52.394667 104.96-34.986667 31.914667-80.384 73.728-91.477333 64.682667s27.648-73.045333 51.2-107.52 65.706667-80.725333 92.672-62.122667z" fill="#42B275" /><path d="M404.650667 514.730667a8.533333 8.533333 0 0 1-4.778667-15.530667l136.533333-93.184a8.533333 8.533333 0 0 1 9.728 13.994667l-136.533333 93.184a8.533333 8.533333 0 0 1-4.949333 1.536zM399.701333 406.698667a8.533333 8.533333 0 0 1-5.632-2.048L290.133333 313.856a8.533333 8.533333 0 0 1 11.264-12.8l103.424 90.624a8.533333 8.533333 0 0 1-5.632 15.018667zM399.018667 562.176c-3.925333 0-17.066667-4.949333-176.298667-102.4a8.533333 8.533333 0 1 1 8.874667-14.506667c59.904 36.352 157.866667 95.061333 169.130666 99.669334a8.533333 8.533333 0 0 1-1.024 17.066666z" fill="#1A5B3E" /><path d="M621.226667 344.064c11.434667 28.16-31.402667 71.850667-81.749334 100.693333-45.397333 25.941333-104.448 60.245333-114.005333 47.786667s52.565333-83.626667 85.333333-115.370667 96.768-66.730667 110.421334-33.109333zM155.477333 406.698667c22.869333-22.016 81.578667 2.901333 128.853334 40.618666 42.666667 34.133333 98.304 77.994667 90.112 92.16S273.066667 520.533333 229.717333 500.736s-101.546667-67.925333-74.24-94.037333z" fill="#42B275" /><path d="M202.581333 228.693333c-23.722667 22.528 24.405333 66.56 68.266667 95.402667 39.594667 25.941333 90.965333 60.074667 100.352 49.493333s-38.570667-68.266667-66.730667-98.304-77.994667-69.290667-101.888-46.592z" fill="#329664" /><path d="M656.554667 1024H367.445333a46.250667 46.250667 0 0 1-45.738666-39.936l-50.005334-360.448h480.597334l-50.005334 360.448A46.250667 46.250667 0 0 1 656.554667 1024z" fill="#685245" /><path d="M736.768 735.232l7.168-51.882667H280.064l7.168 51.882667h449.536z" fill="#513D33" /><path d="M745.813333 695.296H278.186667a15.36 15.36 0 0 1-15.018667-12.458667l-9.216-46.250666a15.36 15.36 0 0 1 15.018667-18.432h486.058666a15.36 15.36 0 0 1 15.018667 18.432l-9.216 46.08a15.36 15.36 0 0 1-15.018667 12.629333z" fill="#7C6559" /></svg>