<?xml version="1.0" standalone="no"?><!DOCTYPE svg PUBLIC "-//W3C//DTD SVG 1.1//EN" "http://www.w3.org/Graphics/SVG/1.1/DTD/svg11.dtd"><svg class="icon" width="200px" height="200.00px" viewBox="0 0 1024 1024" version="1.1" xmlns="http://www.w3.org/2000/svg"><path d="M615.253333 125.098667c0 55.637333-37.546667 108.885333-92.672 108.885333-57.856 0-92.672-53.248-92.672-108.885333C429.909333 15.530667 522.581333 0 522.581333 0a126.293333 126.293333 0 0 1 92.672 125.098667zM432.298667 211.968c48.981333 32.768 73.728 97.109333 41.301333 145.578667s-101.376 50.176-150.357333 17.066666c-96.426667-64.512-55.466667-155.136-55.466667-155.136a133.632 133.632 0 0 1 164.522667-7.509333z" fill="#42B275" /><path d="M760.32 494.933333c-54.101333 34.133333-129.365333 31.402667-163.84-22.186666-36.010667-56.32-5.973333-123.392 48.128-158.037334 106.666667-68.266667 179.541333 12.117333 179.541333 12.117334A145.92 145.92 0 0 1 760.32 494.933333z" fill="#329664" /><path d="M401.066667 438.442667c58.026667 25.258667 94.72 80.896 69.632 138.24-26.112 60.245333-101.205333 64.512-148.650667 43.008-97.109333-43.690667-95.061333-148.821333-95.061333-148.821334a149.674667 149.674667 0 0 1 174.08-32.426666z" fill="#258450" /><path d="M789.845333 419.84l-57.685333-17.066667 51.2-32.597333a12.8 12.8 0 1 0-13.653333-21.674667l-55.978667 35.498667v-54.442667a8.533333 8.533333 0 0 0-8.533333-8.704 8.533333 8.533333 0 0 0-8.533334 8.362667v65.536l-48.981333 31.061333-4.437333-68.266666a8.704 8.704 0 0 0-9.045334-8.021334 8.533333 8.533333 0 0 0-8.021333 9.045334l5.12 76.970666-95.914667 61.098667V201.045333L597.333333 153.6a8.533333 8.533333 0 1 0-10.410666-13.482667l-51.2 39.765334V122.026667l48.469333-41.130667a8.533333 8.533333 0 0 0-10.922667-12.629333l-37.888 31.402666V59.221333a12.8 12.8 0 1 0-25.6 0v44.714667l-36.522666-23.893333a8.533333 8.533333 0 1 0-9.386667 14.336l45.738667 30.037333v47.786667L460.8 145.237333a8.533333 8.533333 0 0 0-8.192 15.018667l57.173333 31.573333V358.4l-58.538666-35.669333-5.290667-78.165334a8.533333 8.533333 0 1 0-17.066667 1.194667l4.437334 66.048-51.2-31.402667-7.68-66.901333a8.533333 8.533333 0 0 0-17.066667 1.877333l6.314667 54.272-58.197334-35.84a12.8 12.8 0 0 0-13.312 22.186667l60.416 36.864-43.349333 18.261333a8.533333 8.533333 0 1 0 6.656 15.701334l54.613333-23.04 45.056 27.648L358.4 360.106667a8.533333 8.533333 0 0 0 7.850667 15.189333l65.536-34.133333 77.141333 47.104v189.098666l-68.266667-29.184-21.674666-85.333333a8.533333 8.533333 0 1 0-17.066667 4.266667l18.432 72.874666L358.4 513.536a8.021333 8.021333 0 0 0 0-1.536l-20.992-68.266667a8.533333 8.533333 0 1 0-17.066667 4.949334l17.066667 56.661333-58.88-24.917333a12.8 12.8 0 0 0-9.898667 23.552l63.317334 26.794666-44.373334 29.013334a8.533333 8.533333 0 0 0 9.386667 14.336l53.930667-35.328 52.565333 22.186666-53.418667 41.130667a8.533333 8.533333 0 0 0 10.410667 13.482667l60.928-47.104 87.210667 36.864v109.056a12.8 12.8 0 0 0 25.6 0v-187.733334l100.352-63.658666 86.357333 30.72h2.901333a8.533333 8.533333 0 0 0 2.901334-17.066667l-73.728-26.282667 59.392-37.717333h1.194666L785.066667 436.053333h2.56a8.533333 8.533333 0 0 0 2.56-17.066666z" fill="#1A5B3E" /><path d="M644.949333 1024H379.050667a42.837333 42.837333 0 0 1-42.496-37.888l-38.4-332.629333h427.690666l-38.4 332.629333A42.837333 42.837333 0 0 1 644.949333 1024z" fill="#685245" /><path d="M714.069333 755.541333l5.973334-52.224H303.957333l5.973334 52.224h404.138666z" fill="#513D33" /><path d="M269.653333 648.533333m35.669334 0l413.184 0q35.669333 0 35.669333 35.669334l0 0q0 35.669333-35.669333 35.669333l-413.184 0q-35.669333 0-35.669334-35.669333l0 0q0-35.669333 35.669334-35.669334Z" fill="#7C6559" /></svg>