<?xml version="1.0" standalone="no"?><!DOCTYPE svg PUBLIC "-//W3C//DTD SVG 1.1//EN" "http://www.w3.org/Graphics/SVG/1.1/DTD/svg11.dtd"><svg class="icon" width="200px" height="200.00px" viewBox="0 0 1024 1024" version="1.1" xmlns="http://www.w3.org/2000/svg"><path d="M779.944389 343.045617a36.863687 36.863687 0 0 0-30.890404 48.468922l-108.543077 61.098147c17.066522-53.418213 32.597056-102.39913 43.007634-130.55889 22.186478-61.610143 53.930208-134.825521 68.266086-168.105238a77.994004 77.994004 0 1 0-59.732825-66.900765 77.652673 77.652673 0 0 0 36.351691 57.172848c-12.287896 27.81843-36.010361 82.601965-56.660852 135.678847l-28.671756-147.454747a8.533261 8.533261 0 1 0-17.066522 3.242639l18.431844 94.719195-58.196839-15.018539a8.533261 8.533261 0 1 0-4.26663 17.066521l66.218103 17.066522 11.946565 61.268813-1.194656 3.071974c-13.823882 38.229008-37.205017 111.956382-60.244821 185.513089l-48.639587-134.142859a8.533261 8.533261 0 0 0-16.04253 5.802617l56.319521 155.305346c-18.090513 58.196839-34.133043 113.663034-45.567613 148.478738l-1.877317 5.973283a12.799891 12.799891 0 0 0 24.405126 7.679935l1.877317-6.314613c13.994548-46.250274 39.082334-128.510908 63.14613-204.79826l125.268269-70.484734a36.863687 36.863687 0 1 0 22.357143-63.828791z" fill="#1A5B3E" /><path d="M634.606895 124.115532m-25.94572 19.163806a32.255726 32.255726 0 1 0 51.891439-38.327613 32.255726 32.255726 0 1 0-51.891439 38.327613Z" fill="#258450" /><path d="M570.965462 219.568085m-21.690073 16.020537a26.965104 26.965104 0 1 0 43.380146-32.041073 26.965104 26.965104 0 1 0-43.380146 32.041073Z" fill="#42B275" /><path d="M538.974873 358.844751m-25.94572 19.163806a32.255726 32.255726 0 1 0 51.89144-38.327612 32.255726 32.255726 0 1 0-51.89144 38.327612Z" fill="#258450" /><path d="M505.344057 662.701567l-2.218648-5.973283c-45.226282-119.465651-80.553982-215.038172-101.204473-273.064345l8.703926-59.391495 43.178299-47.1036a8.533261 8.533261 0 1 0-12.629226-11.605235l-26.111778 28.501091 11.605235-83.45529a8.533261 8.533261 0 0 0-17.066522-2.559978l-20.650491 139.774811-1.535987-6.485278C363.521262 266.587601 341.334784 168.284436 340.310793 167.260445a12.799891 12.799891 0 1 0-24.917122 5.802617s17.066522 73.044712 37.205017 140.969469l-63.316795-41.983643a26.111778 26.111778 0 1 0-11.605235 17.066521l2.559979-1.877317 80.383316 53.247547 2.730644 8.874591c10.922574 34.133043 33.109052 95.401856 56.831517 159.401312l-122.537625-36.693021a8.533261 8.533261 0 0 0-4.949292 17.066521L426.667392 528.217377c18.602509 50.004908 37.375682 100.009817 51.199565 137.726829l2.218648 5.631952a12.799891 12.799891 0 0 0 24.063795-8.703926z" fill="#1A5B3E" /><path d="M314.179789 121.474677m-46.220438 44.759445a64.340786 64.340786 0 1 0 92.440875-89.51889 64.340786 64.340786 0 1 0-92.440875 89.51889Z" fill="#258450" /><path d="M421.856054 201.003418m-27.588025 8.413449a28.842422 28.842422 0 1 0 55.17605-16.826899 28.842422 28.842422 0 1 0-55.17605 16.826899Z" fill="#258450" /><path d="M456.288103 262.469363m-23.800716 3.548547a24.063795 24.063795 0 1 0 47.601431-7.097095 24.063795 24.063795 0 1 0-47.601431 7.097095Z" fill="#42B275" /><path d="M286.602351 477.410342m-0.060616 31.573007a31.573065 31.573065 0 1 0 0.121232-63.146014 31.573065 31.573065 0 1 0-0.121232 63.146014Z" fill="#258450" /><path d="M660.478738 1023.999829H363.521262a47.78626 47.78626 0 0 1-47.44493-42.324973L273.068698 609.79535h477.862604l-42.836969 371.879506A47.78626 47.78626 0 0 1 660.478738 1023.999829z" fill="#685245" /><path d="M737.790081 723.97038l6.655943-58.367504H279.553976l6.655943 58.367504h451.580162z" fill="#513D33" /><path d="M241.154302 604.334063m39.764996 0l461.990739 0q39.764995 0 39.764996 39.764995l0 0.170666q0 39.764995-39.764996 39.764995l-461.990739 0q-39.764995 0-39.764996-39.764995l0-0.170666q0-39.764995 39.764996-39.764995Z" fill="#7C6559" /></svg>