<?xml version="1.0" standalone="no"?><!DOCTYPE svg PUBLIC "-//W3C//DTD SVG 1.1//EN" "http://www.w3.org/Graphics/SVG/1.1/DTD/svg11.dtd"><svg class="icon" width="200px" height="200.00px" viewBox="0 0 1024 1024" version="1.1" xmlns="http://www.w3.org/2000/svg"><path d="M612.351783 479.572294s56.149212 4.266657 81.066491-17.066629c45.397235-38.058584 13.141305-95.40246 45.397235-138.7517 29.525269-39.594581 105.813104-22.869284 103.765108 60.074537-2.047996 78.33583-49.834559 132.437046-121.002404 138.2397a486.398946 486.398946 0 0 1-105.301106-6.314653z" fill="#258450" /><path d="M416.59754 417.10843s-59.733204 17.06663-90.79447-1.706663c-39.253248-24.234614-3.754659-152.575669-59.050539-197.972905-52.394553-43.007907-136.533038 6.314653-123.903731 98.133121a197.460906 197.460906 0 0 0 165.204975 170.666297 273.066075 273.066075 0 0 0 113.663754-15.018634z" fill="#329664" /><path d="M676.863643 406.697785c-7.679983 182.442271-53.247885 330.751283-164.863643 330.751284-115.882416 0-153.599667-148.479678-164.863643-330.751284C335.01905 221.866186 392.533592 76.117168 512 76.117168c114.517085 0 172.884959 142.506358 164.863643 330.580617z" fill="#42B275" /><path d="M433.834836 555.689463a8.703981 8.703981 0 0 0-10.410644-5.973321 8.533315 8.533315 0 0 0-5.97332 10.410644c2.901327 10.751977 6.485319 21.845286 10.751976 33.279928a8.533315 8.533315 0 0 0 8.021316 5.631988 8.533315 8.533315 0 0 0 8.021316-11.434642c-4.095991-11.093309-7.509317-21.67462-10.410644-31.914597zM464.384103 633.513294a8.533315 8.533315 0 1 0-15.1893 7.679983c7.338651 14.506635 12.970639 23.893282 13.994636 25.599945l7.338651-4.266657-7.338651-4.266658 14.847968 8.362649a9.045314 9.045314 0 0 0 0-8.874648c-1.36533-1.535997-6.826652-10.410644-13.653304-24.234614zM441.00282 179.370278a8.362649 8.362649 0 0 0 3.413326 0 8.533315 8.533315 0 0 0 7.85065-5.119989c4.437324-10.239978 9.21598-20.309289 14.506635-30.037268a8.533315 8.533315 0 0 0-15.018634-7.679983c-5.461322 10.069312-10.58131 20.650622-15.1893 31.402598a8.533315 8.533315 0 0 0 4.437323 11.434642zM407.552226 346.11125a8.533315 8.533315 0 0 0 8.533315-7.85065q1.194664-17.06663 3.24266-34.133259a8.533315 8.533315 0 0 0-7.509317-9.557313 8.703981 8.703981 0 0 0-9.557313 7.509317q-2.047996 17.06663-3.24266 34.13326a8.533315 8.533315 0 0 0 8.533315 9.898645zM423.594858 506.537569c-1.706663-10.410644-3.071993-21.67462-4.437324-34.133259a8.703981 8.703981 0 0 0-9.386646-7.509317 8.533315 8.533315 0 0 0-7.509317 9.386646c1.36533 12.117307 2.901327 23.551949 4.437324 34.133259a8.533315 8.533315 0 0 0 8.362648 7.167985h1.365331a8.533315 8.533315 0 0 0 7.167984-9.045314zM417.792204 261.460767h1.706663a8.533315 8.533315 0 0 0 8.362649-6.826652l1.877329-8.703981c1.706663-8.191982 3.754659-17.06663 5.97332-23.893282a8.533315 8.533315 0 1 0-17.066629-4.60799q-3.413326 11.946641-6.143987 24.91728l-1.877329 8.874647a8.533315 8.533315 0 0 0 7.167984 10.239978zM407.210894 431.444399a8.533315 8.533315 0 0 0 8.191982-8.874648v-33.791927a8.533315 8.533315 0 0 0-17.06663 0v34.474592a8.533315 8.533315 0 0 0 8.533315 8.191983zM569.514542 174.932954a8.533315 8.533315 0 0 0 7.85065 5.119989 8.362649 8.362649 0 0 0 3.413326 0 8.533315 8.533315 0 0 0 4.437323-11.263975C580.266519 157.524992 575.487862 146.943682 570.026541 136.533038a8.533315 8.533315 0 0 0-15.018634 8.191982c5.290655 9.898645 10.069312 19.967957 14.506635 30.207934zM586.239839 221.866186c2.218662 7.679983 4.095991 15.701299 5.973321 23.893282l1.877329 8.703981a8.533315 8.533315 0 0 0 8.362648 6.826652h1.706663a8.533315 8.533315 0 0 0 6.655986-10.069312l-1.877329-8.874647q-2.730661-12.970639-6.143987-24.91728a8.533315 8.533315 0 1 0-17.06663 4.60799zM601.941138 304.63934q2.047996 17.06663 3.24266 34.133259a8.533315 8.533315 0 0 0 8.533315 7.85065 8.533315 8.533315 0 0 0 7.85065-9.045314q-1.194664-17.06663-3.24266-34.133259a8.533315 8.533315 0 1 0-17.06663 2.047995zM615.423776 380.244509a8.533315 8.533315 0 0 0-8.533315 8.533315v33.791927a8.533315 8.533315 0 0 0 8.191982 8.874648 8.533315 8.533315 0 0 0 8.533315-8.191983v-34.474592a8.533315 8.533315 0 0 0-8.191982-8.533315zM493.056041 77.482499c-3.754659 4.095991-7.85065 8.874647-12.799972 15.1893a8.533315 8.533315 0 1 0 13.482637 10.410644 217.08753 217.08753 0 0 1 17.06663-19.79729 218.111527 218.111527 0 0 1 17.06663 19.79729 8.533315 8.533315 0 0 0 13.482637-10.410644c-4.949323-6.485319-9.21598-11.263976-12.970638-15.359967a129.02372 129.02372 0 0 0-17.06663-1.36533 136.533038 136.533038 0 0 0-18.261294 1.535997zM612.01045 465.406992a8.533315 8.533315 0 0 0-9.386646 7.509317c-1.194664 11.775974-2.730661 23.03995-4.437324 34.133259a8.533315 8.533315 0 0 0 7.167984 9.727979h1.365331a8.533315 8.533315 0 0 0 8.362648-7.167984c1.706663-10.751977 3.24266-22.186619 4.437324-34.13326a8.533315 8.533315 0 0 0-7.509317-10.069311zM598.357146 549.716142a8.533315 8.533315 0 0 0-10.410644 5.973321c-2.901327 10.239978-6.314653 20.991955-10.239978 31.743931a8.533315 8.533315 0 1 0 16.042632 5.97332c4.266657-11.263976 7.85065-22.527951 10.751977-33.279928a8.533315 8.533315 0 0 0-6.143987-10.410644zM568.831877 629.587969a8.533315 8.533315 0 0 0-11.434642 3.754659c-6.826652 13.482637-12.117307 22.357285-13.141305 24.234614a9.045314 9.045314 0 0 0 1.023998 10.751977 8.533315 8.533315 0 0 0 12.117307 0 8.362649 8.362649 0 0 0 1.535997-2.047996c1.194664-1.877329 6.655986-11.093309 13.82397-25.258612a8.533315 8.533315 0 0 0-3.925325-11.434642z" fill="#329664" /><path d="M648.533038 1023.997781H375.466962a51.199889 51.199889 0 0 1-51.199889-44.202571L280.917834 662.185232h462.164332L699.732927 979.79521A51.199889 51.199889 0 0 1 648.533038 1023.997781z" fill="#685245" /><path d="M729.08753 763.049013l6.485319-46.933231H288.427151l6.485319 46.933231h434.17506z" fill="#513D33" /><path d="M733.866186 726.867758H290.133814a17.06663 17.06663 0 0 1-17.06663-13.653303l-7.167984-35.49859a17.06663 17.06663 0 0 1 17.06663-20.479956h458.751006a17.06663 17.06663 0 0 1 17.066629 20.479956L750.932816 713.214455a17.06663 17.06663 0 0 1-17.06663 13.653303z" fill="#7C6559" /></svg>