<?xml version="1.0" standalone="no"?><!DOCTYPE svg PUBLIC "-//W3C//DTD SVG 1.1//EN" "http://www.w3.org/Graphics/SVG/1.1/DTD/svg11.dtd"><svg class="icon" width="200px" height="200.00px" viewBox="0 0 1024 1024" version="1.1" xmlns="http://www.w3.org/2000/svg"><path d="M471.210714 675.156546a12.799985 12.799985 0 0 1-12.117319-9.557323l-153.599821-492.884758a12.799985 12.799985 0 1 1 24.405305-7.679991l153.599821 492.884758a12.799985 12.799985 0 0 1-12.287986 17.066647z" fill="#1A5B3E" /><path d="M279.93934 188.887689m38.273447-11.986835l0 0q38.273447-11.986836 50.260282 26.286611l36.725624 117.263326q11.986836 38.273447-26.286611 50.260283l0 0q-38.273447 11.986836-50.260283-26.286612l-36.725623-117.263326q-11.986836-38.273447 26.286611-50.260282Z" fill="#42B275" /><path d="M517.973326 682.66587s-17.066647-189.951778 104.106546-247.807711 238.933055 129.706515 238.933054 129.706516-120.31986-112.298536-187.733114-90.794561-68.266587 208.042424-68.266587 208.042424zM506.880006 671.231217s-2.559997-104.106545-47.103945-169.642469-100.351883-80.554573-158.549148-60.757262-108.20254 106.495876-108.202541 106.495875 80.042573-91.647893 149.162493-73.045248 91.647893 201.898431 91.647893 201.898431z" fill="#258450" /><path d="M515.242663 703.999179a12.799985 12.799985 0 0 1-12.799985-11.946653L459.093395 55.978601a12.799985 12.799985 0 1 1 25.59997-1.706664l43.349283 636.073924a12.799985 12.799985 0 0 1-11.946653 13.653318z" fill="#1A5B3E" /><path d="M427.74451 66.610092m44.611067-3.041277l-0.170271 0.011608q44.611068-3.041278 47.652346 41.56979l10.969493 160.906333q3.041278 44.611068-41.569791 47.652345l0.170272-0.011608q-44.611068 3.041278-47.652346-41.56979l-10.969493-160.906333q-3.041278-44.611068 41.56979-47.652345Z" fill="#42B275" /><path d="M567.978601 763.391109h-1.365331a12.799985 12.799985 0 0 1-11.263987-14.165316l73.386581-633.343262a12.799985 12.799985 0 0 1 25.429303 3.583996L580.266587 752.127123a12.799985 12.799985 0 0 1-12.287986 11.263986z" fill="#1A5B3E" /><path d="M598.709558 119.243138m40.686855 4.722023l0 0q40.686855 4.722023 35.964833 45.408878l-19.458669 167.663749q-4.722023 40.686855-45.408879 35.964833l0 0q-40.686855-4.722023-35.964832-45.408879l19.458669-167.663749q4.722023-40.686855 45.408878-35.964832Z" fill="#42B275" /><path d="M561.151943 721.577825a618.324612 618.324612 0 0 1 136.533174-281.599672 337.407606 337.407606 0 0 1 279.72234-109.055872s-119.466527 26.623969-184.490451 102.39988A741.887134 741.887134 0 0 0 654.335834 699.732517zM494.933353 729.599149s-69.119919-147.285162-141.994501-231.42373c-66.559922-76.970577-141.311835-110.933204-200.874432-77.31191a298.836985 298.836985 0 0 0-113.322535 121.685191 296.106321 296.106321 0 0 1 140.62917-80.725239c115.029199-26.623969 215.551749 255.999701 215.551748 255.999702z" fill="#329664" /><path d="M645.631844 1023.998805H381.781485a34.133294 34.133294 0 0 1-34.133293-31.231963l-27.135969-324.266289a34.133294 34.133294 0 0 1 34.133294-37.034623h318.292962a34.133294 34.133294 0 0 1 34.133293 37.034623l-27.135968 324.266289A34.133294 34.133294 0 0 1 645.631844 1023.998805z" fill="#7C6559" /><path d="M344.576195 955.732218h338.260939l3.925329-46.933278H340.650867l3.925328 46.933278zM336.042872 853.332338h355.327585l3.925329-46.933279H332.117543l3.925329 46.933279zM327.509549 750.932457h372.394232l3.925329-46.933278H323.58422l3.925329 46.933278z" fill="#513D33" /></svg>