<?xml version="1.0" standalone="no"?><!DOCTYPE svg PUBLIC "-//W3C//DTD SVG 1.1//EN" "http://www.w3.org/Graphics/SVG/1.1/DTD/svg11.dtd"><svg class="icon" width="200px" height="200.00px" viewBox="0 0 1024 1024" version="1.1" xmlns="http://www.w3.org/2000/svg"><path d="M368.299002 302.76196a12.79997 12.79997 0 0 1-11.43464-6.997317l-34.133254-68.266507a12.79997 12.79997 0 0 1 22.86928-11.43464l34.133254 68.266507a12.79997 12.79997 0 0 1-11.43464 18.602623z" fill="#1A5B3E" /><path d="M375.466985 307.199283l-81.40781-32.426591a12.79997 12.79997 0 0 1 9.215979-23.893277l57.002533 22.186615 19.626621-59.562528a12.79997 12.79997 0 1 1 24.23461 8.021314z" fill="#1A5B3E" /><path d="M322.389776 410.623042a93.866448 93.866448 0 0 1-22.698614-77.482486c7.679982-76.799821 115.882396-109.567744 170.666268-49.83455a100.351766 100.351766 0 0 1 17.066627 108.031748z" fill="#258450" /><path d="M266.752572 446.633625a12.79997 12.79997 0 0 1-8.703979-3.413326l-49.663885-46.591891a12.79997 12.79997 0 1 1 17.066627-18.602623l49.663884 46.591891a12.79997 12.79997 0 0 1-8.703979 22.186615z" fill="#1A5B3E" /><path d="M194.731407 450.217616a12.79997 12.79997 0 0 1 0-25.59994l58.53853-2.901327-4.778655-49.493218a12.79997 12.79997 0 1 1 24.575942-2.389327l7.33865 76.117155-85.333135 4.266657zM686.420926 102.399761a12.79997 12.79997 0 0 1-9.727977-4.437323L629.418393 42.666567a12.79997 12.79997 0 1 1 19.455954-17.066627l47.274557 55.637204A12.79997 12.79997 0 0 1 686.420926 102.399761z" fill="#1A5B3E" /><path d="M697.6849 104.789089l-89.087792-14.677299a12.79997 12.79997 0 1 1 4.09599-25.258608l62.122522 10.239976 5.119988-51.19988a12.79997 12.79997 0 0 1 25.429274 2.559994zM833.705916 237.396779a12.79997 12.79997 0 0 1-11.605306-18.26129l32.597257-69.631838a12.79997 12.79997 0 1 1 23.210613 10.922641l-32.597258 69.631838a12.79997 12.79997 0 0 1-11.605306 7.338649z" fill="#1A5B3E" /><path d="M825.343269 241.322104l-25.59994-84.479803a12.79997 12.79997 0 0 1 24.575942-7.509316l17.066627 58.367864L895.999104 187.732895a12.79997 12.79997 0 1 1 9.045312 23.893278z" fill="#1A5B3E" /><path d="M733.866149 237.055447a99.839767 99.839767 0 0 1-104.959755-53.930541c-34.133254-67.413176 47.615889-149.844984 119.466388-102.399761 63.999851 41.301237 24.746609 129.023699 24.746609 129.023699z" fill="#42B275" /><path d="M680.276941 375.465791s-18.943956-104.959755 34.133253-161.620957c64.682516-69.290505 194.559546-15.018632 181.58891 85.333135-13.823968 106.154419-121.685049 123.221046-121.685049 123.221045zM229.547326 599.038602s-41.64257-85.333134-4.095991-158.378297c35.157251-68.266507 156.500968-80.895811 205.82352-19.967953v173.738261z" fill="#329664" /><path d="M552.789238 353.108509h-3.071993a12.79997 12.79997 0 0 1-9.215978-15.53063l18.773289-74.581159a12.79997 12.79997 0 0 1 24.917276 6.314652l-18.77329 74.581159a12.79997 12.79997 0 0 1-12.629304 9.215978z" fill="#1A5B3E" /><path d="M547.839916 358.399164l-41.301237-77.994485a12.79997 12.79997 0 0 1 22.698614-11.946639l28.501267 53.930541 49.322552-30.207929a12.79997 12.79997 0 1 1 13.311968 21.845282z" fill="#1A5B3E" /><path d="M571.90386 444.756296s21.333284-110.421076 130.218363-104.789089a133.631688 133.631688 0 0 1 130.218363 126.805037A203.263526 203.263526 0 0 1 799.572662 580.265313l-197.802205-2.389328z" fill="#258450" /><path d="M392.533612 611.838572s-99.157102-187.732895 32.085259-278.356683 315.049932 56.319869 230.399462 259.583394z" fill="#42B275" /><path d="M689.322253 1023.997611H334.677747a51.199881 51.199881 0 0 1-51.19988-44.202564L228.693994 580.265313h566.612012l-55.295871 399.529734A51.199881 51.199881 0 0 1 689.322253 1023.997611z" fill="#685245" /><path d="M778.239379 703.998357l7.850648-57.514532H237.909973l7.850648 57.514532h532.478758z" fill="#513D33" /><path d="M788.138022 659.795794H235.861978a17.066627 17.066627 0 0 1-17.066627-13.653302l-10.239976-51.19988a17.066627 17.066627 0 0 1 17.066627-20.479952h572.755996a17.066627 17.066627 0 0 1 17.066627 20.479952l-10.239976 51.19988a17.066627 17.066627 0 0 1-17.066627 13.653302z" fill="#7C6559" /></svg>