<?xml version="1.0" standalone="no"?><!DOCTYPE svg PUBLIC "-//W3C//DTD SVG 1.1//EN" "http://www.w3.org/Graphics/SVG/1.1/DTD/svg11.dtd"><svg class="icon" width="200px" height="200.00px" viewBox="0 0 1024 1024" version="1.1" xmlns="http://www.w3.org/2000/svg"><path d="M443.733345 678.570554s-38.05866-197.802634-1.536-343.893276 110.421315-226.645296 124.074646-281.25862c0 0 59.733323 165.887972 59.90399 313.343948a1200.1278 1200.1278 0 0 1-43.861326 310.442614z" fill="#258450" /><path d="M501.077335 638.975894s2.56-156.159974 57.173324-258.559957 151.039975-185.685302 170.666638-241.834627c0 0 31.402661 189.951968-23.210663 318.80528A1907.370349 1907.370349 0 0 1 614.399983 648.533225z" fill="#42B275" /><path d="M512 652.799891s17.066664-155.306641-26.111996-262.826623-133.461311-200.874633-147.285308-258.90129c0 0-51.199991 185.685302-10.581332 319.487947a1907.370349 1907.370349 0 0 0 70.143988 200.191967z" fill="#329664" /><path d="M418.133349 631.466561s-22.186663-93.866651-69.631988-147.455975-119.466647-89.087985-139.60531-119.466647c0 0 8.703999 118.613314 60.074656 187.733302a1177.599804 1177.599804 0 0 0 82.26132 102.399983z" fill="#258450" /><path d="M605.525318 633.855894a415.402597 415.402597 0 0 1 73.045321-157.695973c57.002657-73.215988 111.103981-137.898644 125.269312-164.181306 0 0 13.482664 133.119978-37.375993 223.743962s-79.530653 111.274648-79.530654 111.274649z" fill="#329664" /><path d="M654.16531 1023.999829H369.83469A45.738659 45.738659 0 0 1 324.266698 983.551836l-40.959993-356.010607h457.38659L699.733302 983.551836A45.738659 45.738659 0 0 1 654.16531 1023.999829z" fill="#685245" /><path d="M728.063964 736.767877l6.485332-55.80799H289.450704l6.485332 55.80799h432.127928z" fill="#513D33" /><path d="M252.757377 622.42123m38.05866 0l442.197259 0q38.05866 0 38.058661 38.05866l0 0.170667q0 38.05866-38.058661 38.05866l-442.197259 0q-38.05866 0-38.05866-38.05866l0-0.170667q0-38.05866 38.05866-38.05866Z" fill="#7C6559" /></svg>