<?xml version="1.0" standalone="no"?><!DOCTYPE svg PUBLIC "-//W3C//DTD SVG 1.1//EN" "http://www.w3.org/Graphics/SVG/1.1/DTD/svg11.dtd"><svg class="icon" width="200px" height="200.00px" viewBox="0 0 1024 1024" version="1.1" xmlns="http://www.w3.org/2000/svg"><path d="M631.466189 752.978321a12.799949 12.799949 0 0 1-12.799949-12.458616c0-6.826639-3.925318-167.593996 27.477223-296.276149 38.399846-157.183371 93.354293-227.327091 95.572951-230.228412a12.799949 12.799949 0 0 1 19.967921 15.871936s-53.930451 69.461055-90.794304 220.500452c-30.719877 125.439498-26.794559 287.913515-26.794559 290.132173a12.799949 12.799949 0 0 1-12.458617 13.14128z" fill="#1A5B3E" /><path d="M769.263276 198.648135m-45.838196 4.712661a46.079816 46.079816 0 1 0 91.676392-9.425322 46.079816 46.079816 0 1 0-91.676392 9.425322Z" fill="#E85B6F" /><path d="M692.052613 347.134611a85.332992 85.332992 0 0 1-51.199795 10.410625 34.133197 34.133197 0 1 1 30.037213-58.026434 80.042346 80.042346 0 0 1 21.162582 47.615809z" fill="#329664" /><path d="M691.199283 346.793279a85.332992 85.332992 0 0 0 20.991916 47.61581 34.133197 34.133197 0 1 0 30.037213-58.026435 80.042346 80.042346 0 0 0-51.029129 10.410625zM657.919416 465.235472s-29.183883 24.575902-53.589119 22.698576a37.37585 37.37585 0 1 1 19.96792-70.314385c22.52791 11.263955 33.621199 47.61581 33.621199 47.615809z" fill="#42B275" /><path d="M656.89542 465.064806s11.775953 36.181189 34.133197 47.445144a37.37585 37.37585 0 1 0 19.96792-70.314385c-25.429232-2.218658-54.101117 22.869242-54.101117 22.869241zM742.569744 236.884386a71.679713 71.679713 0 0 1-43.007828 9.215963 28.330553 28.330553 0 1 1 24.917234-49.322469 68.266394 68.266394 0 0 1 18.090594 40.106506z" fill="#329664" /><path d="M741.88708 236.543054a71.679713 71.679713 0 0 0 18.090595 40.106506 28.330553 28.330553 0 1 0 25.087899-49.493135 68.266394 68.266394 0 0 0-43.178494 9.386629z" fill="#329664" /><path d="M737.961763 806.738106h-1.023996a12.799949 12.799949 0 0 1-11.775953-13.653278 1250.128333 1250.128333 0 0 1 54.613115-276.64956c51.199795-144.383422 110.07956-204.799181 112.468883-207.871169a12.799949 12.799949 0 0 1 18.261261 17.066598S853.331968 386.387788 803.838833 524.797901C762.878996 639.826774 750.932378 793.42616 750.932378 794.962153a12.799949 12.799949 0 0 1-12.970615 11.775953z" fill="#1A5B3E" /><path d="M920.574366 297.129478m-43.690492 0a43.690492 43.690492 0 1 0 87.380984 0 43.690492 43.690492 0 1 0-87.380984 0Z" fill="#E85B6F" /><path d="M820.393433 450.728864a80.213012 80.213012 0 0 1-48.639805 7.167971 31.573207 31.573207 0 1 1 31.231875-53.247787 75.775697 75.775697 0 0 1 17.40793 46.079816z" fill="#42B275" /><path d="M819.198771 450.387532a80.213012 80.213012 0 0 0 17.066599 46.079815A31.573207 31.573207 0 1 0 868.350575 443.731558a75.775697 75.775697 0 0 0-49.151804 6.655974zM777.044273 572.584376a89.770308 89.770308 0 0 1-51.199795 19.626588 35.327859 35.327859 0 1 1 21.503914-65.706403c20.650584 11.263955 29.695881 46.079816 29.695881 46.079815z" fill="#329664" /><path d="M776.190943 572.41371a89.770308 89.770308 0 0 0 30.037213 46.250482 35.327859 35.327859 0 1 0 21.503914-65.706404c-23.551906-3.242654-51.541127 19.455922-51.541127 19.455922z" fill="#258450" /><path d="M891.90248 330.580011a68.266394 68.266394 0 0 1-41.471834 4.607982 26.794559 26.794559 0 1 1 28.159888-44.031824 64.17041 64.17041 0 0 1 13.311946 39.423842z" fill="#42B275" /><path d="M891.390482 330.238679a68.266394 68.266394 0 0 0 13.141281 39.423842 26.794559 26.794559 0 1 0 28.159888-44.031824 64.17041 64.17041 0 0 0-41.301169 4.607982z" fill="#42B275" /><path d="M273.067622 816.636733a12.799949 12.799949 0 0 1-12.799948-11.775952 1128.27282 1128.27282 0 0 0-48.127808-244.223024c-43.690492-125.268832-95.060953-179.028617-95.572951-179.540615a12.799949 12.799949 0 0 1 18.26126-17.066598c2.218658 2.218658 55.466445 57.685103 102.399591 188.756578A1132.53947 1132.53947 0 0 1 286.720901 802.130125a12.799949 12.799949 0 0 1-11.775953 13.653279z" fill="#1A5B3E" /><path d="M108.374948 353.790585m-39.423842 0a39.423842 39.423842 0 1 0 78.847684 0 39.423842 39.423842 0 1 0-78.847684 0Z" fill="#E85B6F" /><path d="M199.169251 493.054028a72.703709 72.703709 0 0 0 44.031824 6.485307 28.671885 28.671885 0 1 0-28.330553-48.298473 68.266394 68.266394 0 0 0-15.701271 41.813166z" fill="#42B275" /><path d="M199.851915 492.712696a72.703709 72.703709 0 0 1-15.70127 41.6425 28.671885 28.671885 0 1 1-28.330554-48.298474 68.266394 68.266394 0 0 1 44.031824 6.655974zM238.081096 581.800339a81.407674 81.407674 0 0 0 47.615809 14.677275 32.085205 32.085205 0 1 0-23.210574-58.1971 76.799693 76.799693 0 0 0-24.405235 43.519825z" fill="#329664" /><path d="M238.934426 581.459007a81.407674 81.407674 0 0 1-24.575902 43.519826 32.085205 32.085205 0 1 1-23.210574-58.1971 76.799693 76.799693 0 0 1 47.786476 14.677274z" fill="#258450" /><path d="M134.486843 384.16913a61.439754 61.439754 0 0 0 37.546517 4.095984 24.23457 24.23457 0 1 0-25.599898-39.935841 58.026435 58.026435 0 0 0-11.946619 35.839857z" fill="#42B275" /><path d="M134.998841 383.827798a61.439754 61.439754 0 0 1-11.946619 35.839857 24.23457 24.23457 0 1 1-25.599897-39.935841 58.026435 58.026435 0 0 1 37.546516 4.095984z" fill="#42B275" /><path d="M383.317848 699.730534a12.799949 12.799949 0 0 1-12.799949-11.946618c-12.117285-165.887336-93.183627-473.086108-94.036957-476.158096a12.799949 12.799949 0 0 1 24.746568-6.826639c0 3.071988 83.114334 312.660083 94.890287 481.107409a12.799949 12.799949 0 0 1-11.946619 13.653278z" fill="#1A5B3E" /><path d="M285.070819 190.416418m-36.286233 23.402813a43.178494 43.178494 0 1 0 72.572467-46.805625 43.178494 43.178494 0 1 0-72.572467 46.805625Z" fill="#E85B6F" /><path d="M296.96086 232.276404a71.679713 71.679713 0 0 1-23.893238 36.522521 28.330553 28.330553 0 1 1-17.066598-52.735789 68.266394 68.266394 0 0 1 40.959836 16.213268z" fill="#329664" /><path d="M296.278196 232.44707a71.679713 71.679713 0 0 0 40.959836 16.042603 28.330553 28.330553 0 1 0-17.066598-52.735789 68.266394 68.266394 0 0 0-23.893238 36.693186zM326.656741 363.689212a85.332992 85.332992 0 0 1-34.133196 39.594508 34.133197 34.133197 0 1 1-11.946619-64.17041 80.042346 80.042346 0 0 1 46.079815 24.575902z" fill="#42B275" /><path d="M325.803411 363.859878a85.332992 85.332992 0 0 0 45.738484 24.575902 34.133197 34.133197 0 1 0-11.946619-64.17041c-20.991916 8.191967-33.791865 39.594508-33.791865 39.594508zM360.789938 494.931354s-13.653279 30.037213-34.133197 37.717182a32.426537 32.426537 0 1 1-10.581291-62.293084A77.823689 77.823689 0 0 1 360.789938 494.931354z" fill="#258450" /><path d="M359.936608 494.931354a82.43167 82.43167 0 0 0 44.031824 24.575901 32.426537 32.426537 0 1 0-10.581291-62.293084c-20.309252 7.338637-33.450533 37.717182-33.450533 37.717183z" fill="#329664" /><path d="M509.610676 692.050565a12.799949 12.799949 0 0 1-12.799949-12.799949c0-90.452972-18.602592-411.134355-18.943924-414.377009a12.799949 12.799949 0 1 1 25.599898-1.535994c0 3.242654 18.943924 324.26537 18.943924 415.913003a12.799949 12.799949 0 0 1-12.799949 12.799949z" fill="#1A5B3E" /><path d="M489.850772 232.371893m-14.239446 43.824509a46.079816 46.079816 0 1 0 28.478892-87.649018 46.079816 46.079816 0 1 0-28.478892 87.649018Z" fill="#E85B6F" /><path d="M494.933402 277.161558a71.679713 71.679713 0 0 0 37.546516 22.869242 28.330553 28.330553 0 1 0-7.167971-54.783781c-17.919928 5.973309-30.378545 31.914539-30.378545 31.914539z" fill="#42B275" /><path d="M494.933402 276.990892s-12.799949 25.770564-30.378546 31.914539a28.330553 28.330553 0 1 1-7.167971-54.783781 68.266394 68.266394 0 0 1 37.546517 22.869242zM496.981393 405.161046a85.332992 85.332992 0 0 0 42.154498 30.378545 34.133197 34.133197 0 1 0-3.413319-65.194406c-21.845246 5.11998-38.741178 34.815861-38.741179 34.815861z" fill="#329664" /><path d="M497.834723 405.161046s-17.066598 29.183883-38.570512 34.133197A34.133197 34.133197 0 1 1 455.680225 375.465165a80.042346 80.042346 0 0 1 42.154498 29.695881z" fill="#42B275" /><path d="M505.685359 549.8858s23.38124 30.207879 47.615809 34.133197a37.37585 37.37585 0 1 0-4.949313-72.874375c-24.23457 5.461311-42.666496 38.741178-42.666496 38.741178z" fill="#329664" /><path d="M506.538689 549.715134s-19.11459 32.938535-42.666496 39.423843a37.37585 37.37585 0 1 1-4.949314-72.874375c24.917234 3.071988 47.61581 33.450533 47.61581 33.450532z" fill="#258450" /><path d="M760.489673 1023.995904H263.510327a68.266394 68.266394 0 0 1-68.266393-58.197101L153.601434 682.663936h716.797132l-42.49583 283.134867A68.266394 68.266394 0 0 1 760.489673 1023.995904z" fill="#685245" /><path d="M856.915954 772.263578l6.826639-44.714488H160.257407l6.826639 44.714488h689.831908z" fill="#513D33" /><path d="M119.468237 648.530739m42.666496 0l699.730534 0q42.666496 0 42.666496 42.666496l0 0q0 42.666496-42.666496 42.666496l-699.730534 0q-42.666496 0-42.666496-42.666496l0 0q0-42.666496 42.666496-42.666496Z" fill="#7C6559" /></svg>